<svg version="1.1" id="Layer_1" xmlns="http://www.w3.org/2000/svg" xmlns:xlink="http://www.w3.org/1999/xlink" x="0px" y="0px"
	 width="100%" viewBox="170 140 685 705" enable-background="new 0 0 1024 1024" xml:space="preserve">
<path fill="#000000" opacity="1.000000" stroke="none" 
	d="
M369.195984,839.146667 
	C328.019684,835.794189 296.258118,817.217590 273.901978,783.019226 
	C263.913757,767.740234 257.887726,750.825745 255.835999,732.672913 
	C255.253082,727.515503 253.252884,725.918640 248.230072,726.163025 
	C236.182175,726.749207 224.253769,726.215027 213.100006,720.631531 
	C189.946030,709.040833 178.456238,690.023376 178.204437,664.486572 
	C177.897247,633.332153 177.739334,602.168274 178.626175,571.013245 
	C179.446091,542.209839 203.009933,517.216309 231.724899,514.583191 
	C237.217102,514.079468 242.690430,513.922668 248.186676,513.910828 
	C254.788086,513.896606 255.085449,513.683167 255.583740,506.913269 
	C256.580872,493.365997 260.737030,480.843048 267.670166,469.219025 
	C274.439484,457.869720 283.236145,448.356049 294.554413,441.520294 
	C299.302521,438.652649 300.973175,435.321869 300.830597,429.812714 
	C300.442657,414.823944 300.507263,399.815155 300.797760,384.822144 
	C300.886078,380.263824 299.226746,378.065887 295.257446,376.094666 
	C267.359619,362.240570 239.585312,348.137634 211.776886,334.103607 
	C201.031906,328.680939 193.710846,320.457703 191.713608,308.337311 
	C189.153534,292.801575 197.257828,278.721008 212.240997,271.515991 
	C260.584717,248.268784 309.135345,225.461884 357.805573,202.908432 
	C398.762665,183.929214 439.757324,165.030899 480.686157,145.991043 
	C502.130829,136.015091 523.546265,135.992813 544.907776,145.904144 
	C604.742920,173.666428 664.554626,201.479645 724.321594,229.388260 
	C754.205750,243.342865 784.019958,257.449493 813.774780,271.677734 
	C832.941101,280.842773 840.063232,302.056274 830.001282,319.451569 
	C825.765564,326.774445 819.349060,331.819824 811.645935,335.035492 
	C806.895020,337.018738 804.985657,339.765961 805.099915,345.190155 
	C805.489319,363.680511 805.317139,382.184113 805.218628,400.681915 
	C805.202087,403.778900 806.136902,405.853149 808.569458,407.909943 
	C820.887085,418.324646 821.617798,435.473877 810.195190,446.653625 
	C807.664978,449.130096 807.282166,451.279724 808.167969,454.575073 
	C811.451904,466.790863 814.515259,479.069336 817.444458,491.375916 
	C819.423645,499.691132 815.258606,505.592072 806.779175,506.408752 
	C796.150085,507.432495 785.476746,507.102539 774.821411,506.689667 
	C772.644287,506.605316 770.358887,505.716949 770.189636,509.255646 
	C770.044250,512.295776 771.011414,513.930176 774.361389,513.969177 
	C780.680969,514.042664 786.985840,513.795227 793.323181,514.507507 
	C823.886597,517.942505 846.769348,542.767761 847.006836,573.615967 
	C847.242859,604.277771 847.245361,634.945251 846.949219,665.606323 
	C846.614685,700.240723 820.274414,726.125610 785.772156,726.233948 
	C782.439148,726.244385 779.080750,726.510193 775.779419,726.190491 
	C771.510193,725.777161 769.716553,727.564575 769.380615,731.678406 
	C768.085510,747.533325 763.386841,762.431885 755.528503,776.176819 
	C735.306091,811.548096 705.129517,832.543091 664.587280,838.366028 
	C657.770996,839.345032 650.965454,839.197937 644.143738,839.197937 
	C552.653198,839.197998 461.162689,839.177673 369.195984,839.146667 
M478.500000,800.771301 
	C536.164490,800.769470 593.829102,800.850342 651.493347,800.738342 
	C694.117188,800.655518 731.251831,764.618958 731.534668,722.032166 
	C731.994019,652.870972 731.739624,583.704224 731.564331,514.540344 
	C731.529236,500.685059 726.795410,488.426575 716.297668,478.836578 
	C713.996216,476.734161 711.955383,475.552063 709.127686,478.486755 
	C695.248413,492.891296 678.260315,498.544678 658.247559,498.468628 
	C560.585754,498.097382 462.921539,498.181885 365.258789,498.386871 
	C346.349060,498.426544 330.301758,492.478546 317.250031,478.879181 
	C314.256775,475.760345 312.057129,476.268219 309.259338,478.701538 
	C302.091705,484.935516 297.743195,492.801483 295.364044,501.904236 
	C292.060791,514.542847 293.725281,527.457642 293.606750,540.197754 
	C293.158813,588.343628 293.356110,636.496399 293.474121,684.646118 
	C293.508789,698.792053 292.911499,712.930908 294.126312,727.092102 
	C297.593964,767.515564 333.381958,800.729614 374.003723,800.770020 
	C408.502441,800.804260 443.001251,800.773071 478.500000,800.771301 
M353.864319,361.569672 
	C370.060181,369.778503 386.298187,377.905853 402.426971,386.244446 
	C407.450867,388.841858 412.579041,390.073853 418.230347,390.067993 
	C481.549103,390.002563 544.867981,390.017853 608.186768,390.064972 
	C613.299988,390.068756 618.002686,389.012482 622.587708,386.672394 
	C675.405334,359.715698 728.266541,332.844604 781.092712,305.904724 
	C782.586853,305.142731 784.727112,304.936157 785.077515,302.644104 
	C783.630676,300.800873 781.521790,300.150421 779.578552,299.243286 
	C753.167114,286.914276 726.760925,274.574097 700.339050,262.267395 
	C643.568115,235.824738 586.719238,209.547714 530.068420,182.850204 
	C517.895691,177.113663 506.795013,177.332642 494.742126,183.139923 
	C466.238800,196.873276 437.398010,209.905182 408.717896,223.272751 
	C354.374115,248.601990 300.043030,273.958557 245.730362,299.354370 
	C243.710175,300.298950 241.280548,300.775238 239.619751,303.573822 
	C277.580719,322.829376 315.403778,342.014954 353.864319,361.569672 
M424.536407,428.907257 
	C407.035278,429.378082 390.534637,426.032288 375.171753,417.139679 
	C365.959717,411.807434 356.232758,407.362305 346.713654,402.565247 
	C344.977325,401.690216 343.283325,400.485901 341.127533,400.904816 
	C339.697571,402.495117 340.161743,404.415558 340.152496,406.175018 
	C340.094727,417.170776 340.105804,428.167023 340.118225,439.163086 
	C340.133759,452.920074 346.911377,459.683807 360.671570,459.684875 
	C461.470825,459.692688 562.270081,459.697601 663.069336,459.701385 
	C664.901917,459.701477 666.740356,459.767609 668.566040,459.648346 
	C678.665955,458.988617 685.736694,451.834991 685.860657,441.858063 
	C686.009705,429.863892 685.969910,417.866486 685.905212,405.871063 
	C685.879761,401.147339 684.336731,400.200500 680.026978,402.098480 
	C677.744690,403.103546 675.574097,404.360626 673.343445,405.484802 
	C665.905762,409.232941 658.241333,412.592743 651.069336,416.793701 
	C635.775879,425.751770 619.282288,429.085266 601.770508,428.911072 
	C573.311340,428.627991 544.849792,428.456146 516.389343,428.464844 
	C486.101471,428.474121 455.813660,428.747955 424.536407,428.907257 
M808.645447,639.500061 
	C808.643066,617.839355 808.744080,596.177979 808.600586,574.518188 
	C808.510742,560.963074 800.318359,552.757202 786.825806,552.303650 
	C783.330566,552.186157 779.810730,552.494873 776.333740,552.215271 
	C771.435303,551.821350 770.059753,553.985596 770.108276,558.647034 
	C770.297485,576.806519 770.174194,594.969360 770.168518,613.130920 
	C770.161255,636.124512 770.147034,659.118042 770.154114,682.111633 
	C770.156189,688.921082 770.184509,688.920471 777.165344,688.940125 
	C780.331116,688.949036 783.497375,689.003052 786.662598,688.964172 
	C799.906494,688.801697 808.514526,680.226074 808.629395,666.992615 
	C808.706055,658.162415 808.644531,649.330994 808.645447,639.500061 
M251.970642,552.337463 
	C247.145111,552.318359 242.316269,552.175415 237.494720,552.304810 
	C225.960648,552.614319 217.233139,561.132019 217.181625,572.648621 
	C217.037994,604.765442 217.045059,636.883789 217.184341,669.000732 
	C217.232620,680.134277 225.506271,688.369446 236.714249,688.930664 
	C240.864670,689.138489 245.046158,688.791199 249.189041,689.065857 
	C253.528824,689.353455 255.019058,687.676636 255.007858,683.322327 
	C254.899994,641.386719 254.957047,599.450623 254.935303,557.514709 
	C254.934311,555.601379 255.393478,553.369019 251.970642,552.337463 
M771.305847,462.922638 
	C771.722595,461.140564 771.971802,459.298157 772.587769,457.587860 
	C774.355469,452.679596 773.686035,449.064270 769.769470,444.791962 
	C760.047302,434.186310 761.625122,417.532471 772.600037,408.117218 
	C775.047180,406.017883 775.906677,403.911652 775.888916,400.859558 
	C775.809509,387.197815 775.929260,373.534943 775.867432,359.873016 
	C775.859009,358.017548 776.551880,355.898407 774.537109,353.905273 
	C758.980347,361.737274 743.388916,369.596527 727.786072,377.432953 
	C724.980042,378.842255 725.156128,381.385681 725.156433,383.903229 
	C725.158203,400.064789 725.257385,416.227478 725.074646,432.386993 
	C725.032043,436.152405 726.196411,438.421143 729.440430,440.480011 
	C744.138245,449.808044 755.308777,462.333862 762.556274,478.262390 
	C763.188110,479.651031 763.446960,481.568237 765.952820,481.796814 
	C768.450256,476.021729 769.417480,469.767120 771.305847,462.922638 
z"/>
<path fill="#000000" opacity="1.000000" stroke="none" 
	d="
M473.822021,694.165161 
	C501.308899,712.146301 532.771057,710.334229 557.807495,689.315796 
	C564.216980,683.934937 571.158936,681.691162 579.060730,684.539001 
	C592.379272,689.339050 595.648560,705.691895 585.585266,716.060608 
	C557.980591,744.503174 513.118835,754.104553 476.138062,739.625183 
	C462.927368,734.452698 451.213898,727.000916 440.920410,717.314148 
	C435.225098,711.954651 432.292267,705.542175 434.514771,697.539673 
	C438.293152,683.935242 454.149200,678.755859 465.283356,687.488892 
	C468.031525,689.644531 470.782593,691.796387 473.822021,694.165161 
z"/>
<path fill="#000000" opacity="1.000000" stroke="none" 
	d="
M628.852905,564.095276 
	C636.312012,570.933960 639.416809,579.178284 639.325378,588.862122 
	C639.202698,601.846191 639.309082,614.832275 639.275635,627.817444 
	C639.232239,644.687195 627.666748,657.917175 611.893616,659.194702 
	C595.299500,660.538696 581.016663,649.515564 579.446838,632.265015 
	C577.973022,616.069824 577.583374,599.594238 579.636353,583.432922 
	C582.763184,558.817993 608.877563,548.704102 628.852905,564.095276 
z"/>
<path fill="#000000" opacity="1.000000" stroke="none" 
	d="
M446.374847,620.994019 
	C446.196014,626.962769 446.820404,632.459412 445.256989,637.868164 
	C441.241760,651.759094 427.075226,661.010803 412.494812,659.125244 
	C397.907776,657.238770 386.721863,644.678040 386.667297,629.995239 
	C386.613464,615.506897 386.605591,601.017822 386.677307,586.529541 
	C386.760895,569.646118 399.768829,556.688232 416.470795,556.728210 
	C433.093689,556.768005 446.157990,569.743713 446.322540,586.522278 
	C446.433594,597.845703 446.363922,609.170959 446.374847,620.994019 
z"/>
</svg>